<?xml version="1.0" encoding="UTF-8"?>
<svg id="Capa_1" data-name="Capa 1" xmlns="http://www.w3.org/2000/svg" xmlns:xlink="http://www.w3.org/1999/xlink" viewBox="0 0 126.95 25.47">
  <defs>
    <style>
      .cls-1 {
        fill: url(#Degradado_sin_nombre_53);
      }
    </style>
    <linearGradient id="Degradado_sin_nombre_53" data-name="Degradado sin nombre 53" x1=".37" y1="12.69" x2="124.96" y2="12.83" gradientUnits="userSpaceOnUse">
      <stop offset=".18" stop-color="#18d3d6"/>
      <stop offset=".81" stop-color="#6818aa"/>
    </linearGradient>
  </defs>
  <path class="cls-1" d="M71.99,0c-1.55,0-2.76,1.18-2.76,2.73s1.21,2.73,2.76,2.73,2.76-1.18,2.76-2.73-1.21-2.73-2.76-2.73ZM9.93,7.54c-2.28,0-4.2.91-5.57,2.42V.9H0v24.16h4.36v-2.01c1.38,1.51,3.29,2.42,5.57,2.42,4.77,0,8.32-3.86,8.32-8.96s-3.56-8.96-8.32-8.96ZM9.06,21.24c-3.07,0-5.26-2.68-4.57-5.93.38-1.76,1.82-3.15,3.59-3.45,3.21-.55,5.67,1.65,5.67,4.65,0,2.68-1.98,4.73-4.7,4.73ZM43.65,21.21c-.32-.08-.62-.2-.9-.36,4.99-3.3,6.84-7.3,6.3-10.37-.47-2.67-2.75-4.43-5.8-4.47-3.67-.05-6.88,2.75-7.35,7.13-.23,2.1.02,4.34.79,6.32,0,0-.18.12-.31.21-4.41,2.98-8.36,1.37-8.66,1.22.86-.54,1.57-1.11,2.16-1.64,2.54-2.3,4.03-5.28,3.99-7.96-.05-3.08-2.14-5.21-5.21-5.29-.08,0-.16,0-.24,0-4.37,0-7.41,3.37-7.58,8.46-.05,1.59.19,3.2.69,4.67-.83.21-1.73.36-2.7.44l.18,4.07c1.72-.14,3.25-.44,4.59-.86,1.35,1.51,3.31,2.35,5.86,2.59,1,.05,1.87.05,2.65-.02,2.35-.2,3.95-.91,5.95-2.03.45-.25.74-.41.78-.43,0,0,.06.07.06.07,1.07,1.1,2.35,1.85,3.78,2.21.83.21,1.68.31,2.53.31,2.43,0,4.84-.82,6.77-2.27-.82-1.14-1.43-2.43-1.79-3.82-1.53,1.47-3.98,2.46-6.53,1.83ZM25.29,17.61c-.27-.88-.41-1.89-.37-3.01.14-4.04,2.57-4.65,3.54-4.53.38.04,1.34.39,1.35,1.43.02,1.64-1.38,4.23-4.52,6.1ZM40.34,17.55c-.42-1.25-.56-2.63-.4-3.89.17-1.35,1.24-3.43,3.25-3.59.85-.07,1.73.54,1.85,1.26.26,1.47-1.13,3.89-4.71,6.22ZM57.28,12.52c0-.88.91-1.48,2.25-1.48,1.45,0,2.42.71,2.42,1.72h4.38c0-3.06-2.76-5.28-6.77-5.28-3.77,0-6.66,1.99-6.66,5.45,0,6.16,9.32,4.54,9.32,7.34,0,.91-1.01,1.58-2.46,1.58-1.58,0-2.73-.77-2.73-1.95h-4.41c0,3.23,2.86,5.55,7.14,5.55s6.87-2.26,6.87-5.62c0-6.16-9.36-4.58-9.36-7.3ZM69.8,25.04h4.38V7.88h-4.38v17.17ZM88.44,7.47c-2.29,0-4.21.91-5.59,2.42V.81h-4.38v24.24h4.38v-2.02c1.38,1.51,3.3,2.42,5.59,2.42,4.78,0,8.35-3.87,8.35-8.99s-3.57-8.99-8.35-8.99ZM87.57,21.21c-2.69,0-4.71-2.05-4.71-4.75s2.02-4.75,4.71-4.75,4.71,2.05,4.71,4.75-1.99,4.75-4.71,4.75ZM104.36,19.02V.81h-4.38v19.15c0,3.33,1.92,5.08,5.62,5.08h1.68v-4.24h-1.04c-1.21,0-1.88-.67-1.88-1.78ZM126.95,16.53c0-5.18-3.97-9.05-9.22-9.05s-9.22,3.87-9.22,8.99,3.97,8.99,9.29,8.99c4.17,0,7.57-2.32,8.89-5.72h-4.75c-.77,1.11-2.26,1.92-4.04,1.92-2.36,0-4.14-1.45-4.71-3.67h13.63c.1-.44.13-.98.13-1.45ZM113.21,14.78c.61-2.12,2.29-3.5,4.51-3.5s4.01,1.41,4.54,3.5h-9.05Z"/>
</svg>